<svg xmlns="http://www.w3.org/2000/svg" viewBox="0 0 1744.62 870.15"><defs><style>.cls-1{fill:#8dc63f;}.cls-2{font-size:116.77px;fill:#fff;font-family:FiraCode-Retina, Fira Code;}.cls-3{fill:#39b54a;}.cls-4{fill:#b2d235;}.cls-5{fill:#231f20;}.cls-6{fill:#c28b8e;stroke:#b2d235;stroke-miterlimit:10;stroke-width:10px;}.cls-7{fill:#00a651;}</style></defs><title>first</title><g id="buttons"><g id="start_button" data-name="start button"><circle id="start" class="cls-1" cx="873.11" cy="415.99" r="221.64"/><text id="START_text" data-name="START text" class="cls-2" transform="translate(705.58 459.01) scale(0.96 1)">START</text></g><g id="polygon1"><path id="_1st_half" data-name="1st half" class="cls-3" d="M1037.07,804.77h-.4a221.64,221.64,0,0,1-.41-443.28l0-25c-131.69.24-239.5,104.2-245.92,234.39H619.89l-78.18-73.42h-293l-85.2,85.71,85.18,86.26h293l78.27-74H790.3c6.42,130.34,114.48,234.4,246.37,234.4h.44ZM533.73,649.4H257.13l-65.38-66.21,65.36-65.76H533.75l70,65.76Z" transform="translate(-163.56 -167.14)"/><polygon id="poly" class="cls-4" points="370.19 350.3 93.55 350.3 28.19 416.06 93.57 482.26 370.17 482.26 440.21 416.06 370.19 350.3"/></g><g id="settings"><path class="cls-5" d="M1766.19,959.57l-4.4-13.56a5.35,5.35,0,0,0-6.75-3.44l-9.53,3.09a5.37,5.37,0,0,1-6-1.95,47,47,0,0,0-3.09-3.8,5.36,5.36,0,0,1-.81-6l4.94-9.69a5.36,5.36,0,0,0-2.34-7.21l-12.7-6.47a5.37,5.37,0,0,0-7.21,2.34l-4.62,9.08a5.35,5.35,0,0,1-5.58,2.84,48.32,48.32,0,0,0-5.75-.5,5.38,5.38,0,0,1-5-3.7l-3.19-9.8a5.36,5.36,0,0,0-6.75-3.44l-13.56,4.4a5.35,5.35,0,0,0-3.43,6.75l3.24,10a5.31,5.31,0,0,1-1.81,5.83,44.39,44.39,0,0,0-4.13,3.62,5.32,5.32,0,0,1-6.16.92l-9.06-4.61a5.36,5.36,0,0,0-7.2,2.34l-6.47,12.7a5.35,5.35,0,0,0,2.34,7.21l9.71,5a5.36,5.36,0,0,1,2.89,5.35,45.15,45.15,0,0,0-.27,4.94,5.37,5.37,0,0,1-3.7,5.11l-9.14,3a5.35,5.35,0,0,0-3.44,6.75l4.4,13.56a5.35,5.35,0,0,0,6.75,3.43l10.06-3.26a5.38,5.38,0,0,1,5.83,1.73q1.26,1.56,2.67,3a5.38,5.38,0,0,1,1,6.2l-4.93,9.69a5.35,5.35,0,0,0,2.34,7.2l12.7,6.47a5.35,5.35,0,0,0,7.21-2.34l5.17-10.16a5.37,5.37,0,0,1,5.42-2.88c1.34.15,2.69.24,4,.28a5.4,5.4,0,0,1,5,3.7l3.37,10.39A5.35,5.35,0,0,0,1715,1037l13.56-4.4a5.37,5.37,0,0,0,3.44-6.75l-3.41-10.5a5.33,5.33,0,0,1,1.77-5.87c1-.75,1.9-1.53,2.81-2.36a5.35,5.35,0,0,1,6-.83l10.08,5.14a5.37,5.37,0,0,0,7.21-2.34l6.47-12.71a5.36,5.36,0,0,0-2.34-7.2l-9.47-4.83a5.37,5.37,0,0,1-2.86-5.6c.21-1.41.35-2.83.43-4.26a5.37,5.37,0,0,1,3.69-4.82l10.38-3.37A5.35,5.35,0,0,0,1766.19,959.57ZM1709,999.71a28.91,28.91,0,1,1,19.66-36.77A29,29,0,0,1,1709,999.71Z" transform="translate(-163.56 -167.14)"/><path class="cls-5" d="M1810.67,924.21l1.72-7.15a2.75,2.75,0,0,0-2-3.33l-5-1.21a2.78,2.78,0,0,1-2.11-2.48c-.07-.84-.18-1.67-.33-2.5a2.76,2.76,0,0,1,1.27-2.87l4.78-2.93a2.75,2.75,0,0,0,.92-3.79l-3.84-6.27a2.77,2.77,0,0,0-3.8-.92l-4.48,2.75a2.77,2.77,0,0,1-3.22-.26,24.19,24.19,0,0,0-2.39-1.77,2.77,2.77,0,0,1-1.2-3l1.24-5.17a2.76,2.76,0,0,0-2-3.33l-7.15-1.72a2.77,2.77,0,0,0-3.33,2l-1.27,5.27a2.74,2.74,0,0,1-2.37,2.08,23.89,23.89,0,0,0-2.79.47,2.74,2.74,0,0,1-3-1.25l-2.73-4.47a2.76,2.76,0,0,0-3.8-.91l-6.27,3.84a2.75,2.75,0,0,0-.91,3.79l2.93,4.8a2.76,2.76,0,0,1-.17,3.13,21.74,21.74,0,0,0-1.45,2.1,2.76,2.76,0,0,1-3,1.24l-4.82-1.16a2.77,2.77,0,0,0-3.33,2l-1.72,7.15a2.77,2.77,0,0,0,2,3.33l5.3,1.28a2.79,2.79,0,0,1,2.1,2.33q.13,1,.36,2a2.77,2.77,0,0,1-1.25,3l-4.78,2.93a2.76,2.76,0,0,0-.91,3.8l3.84,6.27a2.75,2.75,0,0,0,3.79.91l5-3.07a2.78,2.78,0,0,1,3.16.2c.55.43,1.11.83,1.7,1.21a2.77,2.77,0,0,1,1.2,3l-1.32,5.47a2.77,2.77,0,0,0,2,3.34l7.15,1.72a2.77,2.77,0,0,0,3.33-2l1.33-5.54a2.76,2.76,0,0,1,2.36-2.1c.63-.07,1.25-.16,1.87-.28a2.76,2.76,0,0,1,2.87,1.26l3,5a2.76,2.76,0,0,0,3.8.91l6.27-3.84a2.76,2.76,0,0,0,.91-3.8l-2.86-4.67a2.79,2.79,0,0,1,.25-3.23c.48-.57.92-1.15,1.34-1.76a2.76,2.76,0,0,1,2.92-1.12l5.48,1.31A2.76,2.76,0,0,0,1810.67,924.21Zm-36,2.21a14.91,14.91,0,1,1,18.56-10.86A14.95,14.95,0,0,1,1774.69,926.42Z" transform="translate(-163.56 -167.14)"/><path class="cls-5" d="M1857.85,989.24V979.3a3.74,3.74,0,0,0-3.74-3.74h-7a3.75,3.75,0,0,1-3.56-2.59q-.54-1.62-1.23-3.18a3.73,3.73,0,0,1,.76-4.18l5.37-5.36a3.74,3.74,0,0,0,0-5.29l-7-7a3.74,3.74,0,0,0-5.29,0l-5,5a3.75,3.75,0,0,1-4.31.68,32.79,32.79,0,0,0-3.71-1.58,3.75,3.75,0,0,1-2.52-3.53v-7.19a3.75,3.75,0,0,0-3.74-3.74h-9.95a3.74,3.74,0,0,0-3.73,3.74v7.34a3.71,3.71,0,0,1-2.47,3.47,34,34,0,0,0-3.51,1.51,3.71,3.71,0,0,1-4.29-.71l-5-5a3.73,3.73,0,0,0-5.28,0l-7,7a3.74,3.74,0,0,0,0,5.29l5.37,5.37a3.75,3.75,0,0,1,.77,4.18,31.26,31.26,0,0,0-1.24,3.21,3.76,3.76,0,0,1-3.56,2.6h-6.71a3.73,3.73,0,0,0-3.73,3.74v9.94a3.74,3.74,0,0,0,3.73,3.74h7.38a3.75,3.75,0,0,1,3.49,2.4c.34.87.71,1.73,1.13,2.57a3.76,3.76,0,0,1-.7,4.32l-5.36,5.36a3.74,3.74,0,0,0,0,5.29l7,7a3.74,3.74,0,0,0,5.29,0l5.62-5.62a3.75,3.75,0,0,1,4.21-.75c.86.39,1.74.74,2.63,1.06a3.76,3.76,0,0,1,2.52,3.53v7.62a3.73,3.73,0,0,0,3.74,3.74h9.94a3.73,3.73,0,0,0,3.74-3.74v-7.7a3.73,3.73,0,0,1,2.44-3.51q1.2-.42,2.37-1a3.73,3.73,0,0,1,4.17.75l5.59,5.58a3.73,3.73,0,0,0,5.28,0l7-7a3.74,3.74,0,0,0,0-5.29l-5.24-5.24a3.75,3.75,0,0,1-.69-4.33c.44-.89.85-1.81,1.2-2.74a3.76,3.76,0,0,1,3.49-2.4h7.62A3.74,3.74,0,0,0,1857.85,989.24Zm-46.63,14.3a20.17,20.17,0,1,1,21-20.16A20.21,20.21,0,0,1,1811.22,1003.54Z" transform="translate(-163.56 -167.14)"/></g><rect id="image" class="cls-6" x="1535.48" y="5" width="164.32" height="164.32" rx="37.65"/><g id="polygon2"><polygon id="poly-2" data-name="poly" class="cls-4" points="1653.57 350.66 1376.31 350.66 1306.91 416.42 1376.33 482.63 1653.55 482.63 1718.71 416.43 1653.57 350.66"/><path id="_2nd_half" data-name="2nd half" class="cls-7" d="M1036.34,805.63l.11-.87c59.2,0,113.48-22.53,155.34-64.4a221.64,221.64,0,0,0,0-313.45c-41.76-41.76-97.13-65.17-156.18-65.28l-.44-25c131.69.24,239.85,104.57,246.27,234.76h170.41L1530,497.94h293l85.2,85.33L1823,669.91H1530l-78.27-74h-170.3C1275,726.25,1167.5,829.79,1035.61,829.79h-.52ZM1538,649.91h276.6L1880,583.7l-65.36-65.76H1538l-70,65.76Z" transform="translate(-163.56 -167.14)"/></g></g></svg>